<svg width="22" height="22" viewBox="0 0 22 22" fill="none" xmlns="http://www.w3.org/2000/svg">
<path d="M21.273 18.718L16.0726 14.2862C15.6539 13.8692 15.0939 13.6252 14.5039 13.6026C15.884 11.9805 16.584 9.88624 16.4571 7.75864C16.3303 5.63104 15.3864 3.63517 13.8234 2.18917C12.2603 0.743173 10.1993 -0.0407515 8.07211 0.00163335C5.94494 0.0440182 3.91667 0.909424 2.41224 2.41654C0.907802 3.92366 0.0439397 5.95555 0.00163044 8.08652C-0.0406788 10.2175 0.741848 12.2822 2.18527 13.848C3.62869 15.4139 5.621 16.3594 7.74481 16.4865C9.86861 16.6136 11.9591 15.9124 13.5783 14.5298C13.6009 15.1209 13.8445 15.6818 14.2607 16.1013L18.7081 21.2953C18.8692 21.5004 19.0718 21.6689 19.3027 21.7898C19.5335 21.9107 19.7873 21.9813 20.0474 21.9967C20.3074 22.0122 20.5677 21.9723 20.8113 21.8797C21.0548 21.787 21.2759 21.6437 21.4601 21.4592C21.6443 21.2746 21.7874 21.0531 21.8799 20.8091C21.9724 20.5652 22.0122 20.3044 21.9968 20.0439C21.9813 19.7834 21.9109 19.5291 21.7902 19.2979C21.6695 19.0666 21.5013 18.8636 21.2965 18.7022L21.273 18.718ZM8.22894 13.7283C7.143 13.7283 6.08145 13.4057 5.17853 12.8013C4.27561 12.1969 3.57186 11.3379 3.15629 10.3328C2.74073 9.32776 2.63199 8.22182 2.84385 7.15484C3.0557 6.08787 3.57863 5.10779 4.3465 4.33855C5.11438 3.56931 6.09271 3.04545 7.15778 2.83321C8.22285 2.62098 9.32682 2.7299 10.3301 3.14622C11.3334 3.56253 12.1909 4.26753 12.7942 5.17206C13.3975 6.0766 13.7195 7.14004 13.7195 8.22792C13.7195 9.68671 13.1411 11.0858 12.1114 12.1173C11.0817 13.1488 9.68513 13.7283 8.22894 13.7283Z" fill="white"/>
</svg>
